# xmcd
#
# Track frame offsets: 
#        150
#        11367
#        23918
#        37333
#        47178
#        61913
#        75026
#        85869
#        95869
#        107389
#
# Disc length: 1592 seconds
#
# Revision: 0
# Processed by: cddbd v1.5.2PL0 Copyright (c) Steve Scherf et al.
# Submitted via: ExactAudioCopy v0.99pb4
#
DISCID=6f06360a
DTITLE=Various Artist - Favorite Country
DYEAR=2006
DGENRE=Country
TTITLE0=Conway Twitty - Hello Darlin'
TTITLE1=Hank Williams - Lovesick Blues (Live)
TTITLE2=Tammy Wynette - DIVORCE
TTITLE3=Merle Haggard - Mama Tried
TTITLE4=George Jones - He Stopped Loving Her Today
TTITLE5=Ray Price - City Lights
TTITLE6=Porter Wagoner - Green, Green Grass Of Home
TTITLE7=Jim Reeves - He'll Have To Go (Live)
TTITLE8=Freddy Fender - Before The Next Teardrop Falls
TTITLE9=Tammy Wynette - 'Til I Get It Right
EXTD=
EXTT0=
EXTT1=
EXTT2=
EXTT3=
EXTT4=
EXTT5=
EXTT6=
EXTT7=
EXTT8=
EXTT9=
PLAYORDER=
